<svg width="50" height="43" viewBox="0 0 50 43" fill="none" xmlns="http://www.w3.org/2000/svg">
<path d="M9.03892 1.29035C9.042 0.738078 9.49219 0.29286 10.0445 0.295932C10.5967 0.299004 11.042 0.749202 11.0389 1.30148L9.03892 1.29035ZM23.8553 31.4112L24.3018 30.5165L23.8553 31.4112ZM42.7945 36.0958C43.1145 36.546 43.0089 37.1703 42.5587 37.4902L35.2226 42.7038C34.7724 43.0237 34.1481 42.9182 33.8282 42.468C33.5082 42.0178 33.6138 41.3935 34.064 41.0736L40.585 36.4393L35.9507 29.9183C35.6307 29.4681 35.7363 28.8438 36.1865 28.5239C36.6367 28.2039 37.261 28.3095 37.5809 28.7597L42.7945 36.0958ZM10.0389 1.29592C11.0389 1.30148 11.0389 1.30127 11.0389 1.30115C11.0389 1.30123 11.0389 1.3012 11.0389 1.30135C11.0389 1.30166 11.0389 1.30232 11.0389 1.30333C11.0389 1.30534 11.0389 1.30874 11.0389 1.31351C11.0389 1.32305 11.0389 1.33807 11.039 1.35843C11.0391 1.39913 11.0396 1.46116 11.0408 1.54331C11.0431 1.70761 11.0484 1.95232 11.0599 2.26787C11.0831 2.89911 11.1315 3.81293 11.2326 4.93291C11.4351 7.17535 11.8477 10.2316 12.6862 13.4951C14.377 20.0756 17.7303 27.2371 24.3018 30.5165L23.4088 32.306C16.0352 28.6264 12.4802 20.7303 10.7491 13.9928C9.87669 10.5973 9.44991 7.4296 9.24073 5.11275C9.13603 3.95309 9.08557 3.00345 9.06128 2.34115C9.04914 2.00992 9.04353 1.75034 9.04097 1.57204C9.03969 1.48288 9.03917 1.41403 9.03897 1.36669C9.03888 1.34301 9.03886 1.32472 9.03887 1.31195C9.03887 1.30556 9.03889 1.30055 9.0389 1.29695C9.0389 1.29515 9.03891 1.2937 9.03891 1.2926C9.03892 1.29205 9.03892 1.29148 9.03892 1.29121C9.03892 1.29074 9.03892 1.29035 10.0389 1.29592ZM24.3018 30.5165C27.5288 32.1268 31.9689 33.4218 35.6531 34.3187C37.4851 34.7647 39.1113 35.1078 40.2792 35.3394C40.8629 35.4551 41.3315 35.5429 41.6533 35.6015C41.8142 35.6309 41.9384 35.6529 42.0218 35.6676C42.0636 35.6749 42.0951 35.6803 42.116 35.6839C42.1265 35.6857 42.1342 35.6871 42.1393 35.6879C42.1418 35.6884 42.1436 35.6887 42.1448 35.6889C42.1454 35.689 42.1458 35.689 42.146 35.6891C42.1461 35.6891 42.1461 35.6891 42.1462 35.6891C42.1462 35.6891 42.1462 35.6891 41.9794 36.6751C41.8126 37.6611 41.8125 37.6611 41.8123 37.661C41.8122 37.661 41.812 37.661 41.8118 37.6609C41.8113 37.6609 41.8106 37.6608 41.8098 37.6606C41.8082 37.6603 41.8059 37.6599 41.8029 37.6594C41.7968 37.6584 41.7881 37.6569 41.7766 37.6549C41.7537 37.651 41.7201 37.6452 41.6763 37.6375C41.5887 37.6221 41.4601 37.5993 41.2946 37.5691C40.9637 37.5088 40.485 37.4191 39.8902 37.3012C38.7011 37.0654 37.046 36.7162 35.18 36.2619C31.4683 35.3583 26.8463 34.0214 23.4088 32.306L24.3018 30.5165Z" fill="#1A281F"/>
</svg>
