<svg width="40" height="37" viewBox="0 0 40 37" fill="none" xmlns="http://www.w3.org/2000/svg">
<path id="Arrow 1" d="M30.1082 22.1311L29.419 21.4065L30.1082 22.1311ZM0.347788 27.9918C-0.0709367 28.352 -0.118445 28.9834 0.241678 29.4021L6.1102 36.2256C6.47032 36.6443 7.1017 36.6918 7.52042 36.3317C7.93915 35.9716 7.98666 35.3402 7.62654 34.9215L2.41007 28.8561L8.47543 23.6397C8.89415 23.2795 8.94166 22.6482 8.58154 22.2294C8.22142 21.8107 7.59004 21.7632 7.17131 22.1233L0.347788 27.9918ZM38.6389 0.889127C37.6398 0.930705 37.6398 0.93039 37.6398 0.930123C37.6398 0.930097 37.6398 0.929877 37.6398 0.929826C37.6398 0.929724 37.6398 0.929812 37.6398 0.93009C37.6398 0.930644 37.6399 0.931957 37.6399 0.93402C37.6401 0.938144 37.6403 0.945267 37.6406 0.955325C37.6412 0.975441 37.642 1.00729 37.6428 1.05037C37.6443 1.13654 37.6455 1.26757 37.6439 1.43943C37.6407 1.78323 37.6266 2.28988 37.582 2.92715C37.4928 4.20275 37.2821 5.99564 36.7965 8.0501C35.8236 12.1664 33.7614 17.2765 29.419 21.4065L30.7973 22.8557C35.5113 18.3723 37.7144 12.8615 38.7429 8.51013C39.2579 6.33077 39.4819 4.42817 39.5771 3.06672C39.6248 2.38548 39.6403 1.83822 39.6438 1.45775C39.6455 1.26747 39.6443 1.11877 39.6425 1.01574C39.6416 0.964222 39.6406 0.924107 39.6397 0.895908C39.6393 0.881809 39.6389 0.870687 39.6387 0.862606C39.6385 0.858565 39.6384 0.855285 39.6383 0.852773C39.6382 0.851516 39.6382 0.850452 39.6382 0.849581C39.6381 0.849146 39.6381 0.848637 39.6381 0.848419C39.6381 0.84796 39.6381 0.847548 38.6389 0.889127ZM29.419 21.4065C25.3893 25.239 18.4167 26.8748 12.2336 27.507C9.17749 27.8194 6.38183 27.8808 4.34938 27.8638C3.33397 27.8553 2.51112 27.8273 1.94398 27.8015C1.66046 27.7886 1.44098 27.7763 1.29347 27.7672C1.21971 27.7627 1.16396 27.759 1.1272 27.7565C1.10882 27.7553 1.09518 27.7543 1.08642 27.7537C1.08204 27.7534 1.07888 27.7531 1.07695 27.753C1.07598 27.7529 1.07533 27.7529 1.07498 27.7528C1.07481 27.7528 1.07478 27.7528 1.0747 27.7528C1.07475 27.7528 1.07488 27.7528 0.999847 28.75C0.924813 29.7472 0.925102 29.7472 0.925465 29.7472C0.925692 29.7473 0.926135 29.7473 0.926585 29.7473C0.927488 29.7474 0.928705 29.7475 0.930231 29.7476C0.933282 29.7478 0.937573 29.7481 0.943092 29.7485C0.954126 29.7493 0.970065 29.7505 0.990779 29.7519C1.03221 29.7547 1.09276 29.7587 1.17143 29.7635C1.32876 29.7731 1.55864 29.786 1.85312 29.7994C2.44197 29.8262 3.2897 29.855 4.33263 29.8637C6.41686 29.8812 9.28893 29.8185 12.437 29.4966C18.6622 28.8601 26.2438 27.1865 30.7973 22.8557L29.419 21.4065Z" fill="white"/>
</svg>
