<svg width="119" height="36" viewBox="0 0 119 36" fill="none" xmlns="http://www.w3.org/2000/svg">
<path d="M40.1036 11.2224L33.3751 35.4352H26.3764L14.7969 0L21.0314 0L30.1754 26.499L30.4528 25.6617L37.0831 0H43.3451L49.9753 25.6617H50.1718L55.7707 0H63.4569L54.0518 35.4352H47.0531L40.3246 11.2224H40.1036Z" fill="url(#paint0_linear_269_12)"/>
<path d="M75.7107 13.8499C72.5674 13.8499 70.3082 16.2319 70.0627 19.5225H81.2359C81.0886 16.1583 78.9031 13.8499 75.7107 13.8499ZM81.3342 27.3806H87.9153C87.1295 32.5375 82.4146 36 75.9071 36C67.8035 36 62.9412 30.8186 62.9412 22.3956C62.9412 13.9973 67.8526 8.5457 75.637 8.5457C83.2987 8.5457 88.1363 13.7271 88.1363 21.7326V23.9181H69.989V24.3602C69.989 28.1173 72.371 30.6958 76.0299 30.6958C78.6575 30.6958 80.6711 29.3943 81.3342 27.3806Z" fill="url(#paint1_linear_269_12)"/>
<path d="M107.487 35.8527C103.632 35.8527 100.685 33.9864 99.2359 30.9168H99.0886V35.4352H92.0163V0H99.1868V13.678H99.3342C100.783 10.5593 103.705 8.69304 107.462 8.69304C114.093 8.69304 118.169 13.7763 118.169 22.2729C118.169 30.7449 114.117 35.8527 107.487 35.8527ZM105.007 14.4393C101.544 14.4393 99.1623 17.558 99.1623 22.2729C99.1623 27.0368 101.52 30.0819 105.007 30.0819C108.592 30.0819 110.827 27.0859 110.827 22.2729C110.827 17.4843 108.567 14.4393 105.007 14.4393Z" fill="url(#paint2_linear_269_12)"/>
<path d="M25.4652 35.4352L22.764 26.8404H10.3138L7.61255 35.4352H0L12.3029 0H21.0205L33.3479 35.4352H25.4652ZM16.4529 6.77763L11.91 21.2906H21.1678L16.6248 6.77763H16.4529Z" fill="white"/>
<defs>
<linearGradient id="paint0_linear_269_12" x1="26.2599" y1="22.5084" x2="89.7449" y2="-13.6718" gradientUnits="userSpaceOnUse">
<stop stop-color="#CBCCFF"/>
<stop offset="0.0960662" stop-color="#E1E2FF"/>
<stop offset="0.426803" stop-color="#EDEEFF"/>
<stop offset="1" stop-color="white"/>
</linearGradient>
<linearGradient id="paint1_linear_269_12" x1="26.2599" y1="22.5084" x2="89.7449" y2="-13.6718" gradientUnits="userSpaceOnUse">
<stop stop-color="#CBCCFF"/>
<stop offset="0.0960662" stop-color="#E1E2FF"/>
<stop offset="0.426803" stop-color="#EDEEFF"/>
<stop offset="1" stop-color="white"/>
</linearGradient>
<linearGradient id="paint2_linear_269_12" x1="26.2599" y1="22.5084" x2="89.7449" y2="-13.6718" gradientUnits="userSpaceOnUse">
<stop stop-color="#CBCCFF"/>
<stop offset="0.0960662" stop-color="#E1E2FF"/>
<stop offset="0.426803" stop-color="#EDEEFF"/>
<stop offset="1" stop-color="white"/>
</linearGradient>
</defs>
</svg>
