<svg width="530" height="143" viewBox="0 0 530 143" fill="none" xmlns="http://www.w3.org/2000/svg">
<path d="M32.77 40.3312C36.685 40.3312 40.2617 40.6696 43.5 41.3462C46.7383 41.9746 49.445 42.6996 51.62 43.5212C53.8433 44.3429 55.2692 45.0196 55.8975 45.5512L48.72 58.5287C47.8017 57.8521 46.0858 56.9821 43.5725 55.9187C41.1075 54.8554 38.3525 54.3237 35.3075 54.3237C32.9875 54.3237 31.03 54.6862 29.435 55.4112C27.84 56.0879 27.0425 57.1754 27.0425 58.6737C27.0425 60.1721 27.9125 61.3804 29.6525 62.2987C31.4408 63.1687 34.0025 63.9421 37.3375 64.6187C40.2375 65.1987 43.1858 66.1171 46.1825 67.3737C49.1792 68.6304 51.6683 70.4912 53.65 72.9562C55.68 75.3729 56.695 78.6112 56.695 82.6712C56.695 86.8279 55.8008 90.2596 54.0125 92.9662C52.2242 95.6729 49.8558 97.7754 46.9075 99.2737C43.9592 100.772 40.7692 101.811 37.3375 102.391C33.9058 103.02 30.5708 103.334 27.3325 103.334C22.7892 103.334 18.8258 102.923 15.4425 102.101C12.1075 101.28 9.40083 100.337 7.3225 99.2737C5.24417 98.2104 3.79417 97.3646 2.9725 96.7362L10.0775 82.2362C11.3342 83.2996 13.3883 84.5079 16.24 85.8612C19.0917 87.1662 22.1125 87.8187 25.3025 87.8187C28.3958 87.8187 30.7883 87.3596 32.48 86.4412C34.1717 85.5229 35.0175 84.3146 35.0175 82.8162C35.0175 81.6079 34.6067 80.6412 33.785 79.9162C32.9633 79.1912 31.8033 78.5629 30.305 78.0312C28.8067 77.4996 26.9942 77.0162 24.8675 76.5812C22.9342 76.1946 20.88 75.5904 18.705 74.7687C16.53 73.9471 14.4758 72.8354 12.5425 71.4337C10.6092 69.9837 9.03833 68.1712 7.83 65.9962C6.62167 63.8212 6.0175 61.1871 6.0175 58.0937C6.0175 54.1304 7.29833 50.8437 9.86 48.2337C12.4217 45.6237 15.7325 43.6662 19.7925 42.3612C23.8525 41.0079 28.1783 40.3312 32.77 40.3312ZM87.1722 131.754H65.3497V42.0712H87.3897V50.7712C88.0664 49.4179 89.3472 47.9437 91.2322 46.3487C93.1655 44.7054 95.6064 43.3037 98.5547 42.1437C101.551 40.9354 104.935 40.3312 108.705 40.3312C114.505 40.3312 119.459 41.7571 123.567 44.6087C127.724 47.4604 130.914 51.2787 133.137 56.0637C135.361 60.8004 136.472 66.0687 136.472 71.8687C136.472 77.6687 135.288 82.9612 132.92 87.7462C130.551 92.4829 127.216 96.2771 122.915 99.1287C118.661 101.932 113.635 103.334 107.835 103.334C103.678 103.334 100.126 102.609 97.1772 101.159C94.2772 99.6604 91.9814 98.0171 90.2897 96.2287C88.6464 94.3921 87.6072 92.9662 87.1722 91.9512V131.754ZM114.94 71.8687C114.94 69.1621 114.336 66.7454 113.127 64.6187C111.919 62.4437 110.276 60.7521 108.197 59.5437C106.167 58.2871 103.871 57.6587 101.31 57.6587C98.6514 57.6587 96.2589 58.2871 94.1322 59.5437C92.0539 60.7521 90.4105 62.4437 89.2022 64.6187C87.9939 66.7454 87.3897 69.1621 87.3897 71.8687C87.3897 74.5754 87.9939 77.0162 89.2022 79.1912C90.4105 81.3179 92.0539 82.9854 94.1322 84.1937C96.2589 85.4021 98.6514 86.0062 101.31 86.0062C103.871 86.0062 106.167 85.4021 108.197 84.1937C110.276 82.9854 111.919 81.3179 113.127 79.1912C114.336 77.0162 114.94 74.5754 114.94 71.8687ZM164.879 101.594H142.839V42.0712H164.879V51.2787H164.516C164.903 50.1671 165.845 48.7654 167.344 47.0737C168.842 45.3337 170.944 43.7871 173.651 42.4337C176.358 41.0321 179.669 40.3312 183.584 40.3312C186.339 40.3312 188.876 40.7662 191.196 41.6362C193.516 42.4579 195.208 43.2554 196.271 44.0287L187.716 61.9362C187.039 61.1146 185.831 60.2687 184.091 59.3987C182.399 58.4804 180.273 58.0212 177.711 58.0212C174.763 58.0212 172.322 58.7704 170.389 60.2687C168.504 61.7671 167.102 63.5796 166.184 65.7062C165.314 67.8329 164.879 69.8387 164.879 71.7237V101.594ZM228.061 103.334C221.536 103.334 215.736 102.005 210.661 99.3462C205.635 96.6396 201.671 92.9421 198.771 88.2537C195.92 83.5171 194.494 78.1037 194.494 72.0137C194.494 65.9237 195.92 60.5104 198.771 55.7737C201.671 50.9887 205.635 47.2187 210.661 44.4637C215.736 41.7087 221.536 40.3312 228.061 40.3312C234.586 40.3312 240.338 41.7087 245.316 44.4637C250.295 47.2187 254.185 50.9887 256.989 55.7737C259.792 60.5104 261.194 65.9237 261.194 72.0137C261.194 78.1037 259.792 83.5171 256.989 88.2537C254.185 92.9421 250.295 96.6396 245.316 99.3462C240.338 102.005 234.586 103.334 228.061 103.334ZM228.061 85.2087C230.575 85.2087 232.75 84.6529 234.586 83.5412C236.423 82.4296 237.849 80.8587 238.864 78.8287C239.879 76.7987 240.386 74.5029 240.386 71.9412C240.386 69.3312 239.879 67.0112 238.864 64.9813C237.849 62.9512 236.423 61.3562 234.586 60.1962C232.75 59.0362 230.575 58.4562 228.061 58.4562C225.548 58.4562 223.349 59.0362 221.464 60.1962C219.627 61.3562 218.177 62.9512 217.114 64.9813C216.099 67.0112 215.591 69.3312 215.591 71.9412C215.591 74.5029 216.099 76.7987 217.114 78.8287C218.177 80.8587 219.627 82.4296 221.464 83.5412C223.349 84.6529 225.548 85.2087 228.061 85.2087ZM290.643 69.6212C290.643 74.3579 291.538 78.1521 293.326 81.0037C295.114 83.8071 298.111 85.2087 302.316 85.2087C306.618 85.2087 309.638 83.8071 311.378 81.0037C313.167 78.1521 314.061 74.3579 314.061 69.6212V42.0712H335.811V71.9412C335.811 78.3212 334.482 83.8796 331.823 88.6162C329.213 93.3046 325.419 96.9296 320.441 99.4912C315.463 102.053 309.421 103.334 302.316 103.334C295.259 103.334 289.242 102.053 284.263 99.4912C279.285 96.9296 275.491 93.3046 272.881 88.6162C270.271 83.8796 268.966 78.3212 268.966 71.9412V42.0712H290.643V69.6212ZM340.661 42.0712H350.811V17.6387H372.633V42.0712H385.973V60.1962H372.633V76.7987C372.633 79.2637 372.996 81.2696 373.721 82.8162C374.446 84.3146 375.775 85.0637 377.708 85.0637C379.013 85.0637 380.125 84.7737 381.043 84.1937C381.961 83.6137 382.517 83.2271 382.711 83.0337L390.251 98.6937C389.912 98.9837 388.849 99.5154 387.061 100.289C385.321 101.062 383.097 101.763 380.391 102.391C377.684 103.02 374.663 103.334 371.328 103.334C365.383 103.334 360.477 101.666 356.611 98.3312C352.744 94.9479 350.811 89.7521 350.811 82.7437V60.1962H340.661V42.0712Z" fill="#1A281F"/>
<path d="M129.958 124.059C131.185 124.059 132.089 124.358 132.672 124.956C133.255 125.538 133.638 126.297 133.822 127.233L133.431 127.026L133.615 126.658C133.799 126.305 134.083 125.929 134.466 125.531C134.849 125.117 135.309 124.772 135.846 124.496C136.398 124.204 137.011 124.059 137.686 124.059C138.79 124.059 139.626 124.296 140.193 124.772C140.776 125.247 141.174 125.883 141.389 126.681C141.604 127.463 141.711 128.337 141.711 129.303V135.191C141.711 135.589 141.581 135.927 141.32 136.203C141.059 136.463 140.73 136.594 140.331 136.594C139.932 136.594 139.603 136.463 139.342 136.203C139.081 135.927 138.951 135.589 138.951 135.191V129.303C138.951 128.797 138.89 128.344 138.767 127.946C138.644 127.532 138.422 127.202 138.1 126.957C137.778 126.711 137.318 126.589 136.72 126.589C136.137 126.589 135.639 126.711 135.225 126.957C134.811 127.202 134.497 127.532 134.282 127.946C134.083 128.344 133.983 128.797 133.983 129.303V135.191C133.983 135.589 133.853 135.927 133.592 136.203C133.331 136.463 133.002 136.594 132.603 136.594C132.204 136.594 131.875 136.463 131.614 136.203C131.353 135.927 131.223 135.589 131.223 135.191V129.303C131.223 128.797 131.162 128.344 131.039 127.946C130.916 127.532 130.694 127.202 130.372 126.957C130.05 126.711 129.59 126.589 128.992 126.589C128.409 126.589 127.911 126.711 127.497 126.957C127.083 127.202 126.769 127.532 126.554 127.946C126.355 128.344 126.255 128.797 126.255 129.303V135.191C126.255 135.589 126.125 135.927 125.864 136.203C125.603 136.463 125.274 136.594 124.875 136.594C124.476 136.594 124.147 136.463 123.886 136.203C123.625 135.927 123.495 135.589 123.495 135.191V125.692C123.495 125.293 123.625 124.963 123.886 124.703C124.147 124.427 124.476 124.289 124.875 124.289C125.274 124.289 125.603 124.427 125.864 124.703C126.125 124.963 126.255 125.293 126.255 125.692V126.681L125.91 126.612C126.048 126.351 126.24 126.075 126.485 125.784C126.73 125.477 127.029 125.193 127.382 124.933C127.735 124.672 128.126 124.465 128.555 124.312C128.984 124.143 129.452 124.059 129.958 124.059ZM170.872 124.059C171.271 124.059 171.6 124.189 171.861 124.45C172.122 124.71 172.252 125.048 172.252 125.462V135.191C172.252 135.589 172.122 135.927 171.861 136.203C171.6 136.463 171.271 136.594 170.872 136.594C170.473 136.594 170.144 136.463 169.883 136.203C169.622 135.927 169.492 135.589 169.492 135.191V134.064L169.998 134.271C169.998 134.47 169.891 134.715 169.676 135.007C169.461 135.283 169.17 135.559 168.802 135.835C168.434 136.111 167.997 136.348 167.491 136.548C167 136.732 166.464 136.824 165.881 136.824C164.823 136.824 163.865 136.555 163.006 136.019C162.147 135.467 161.465 134.715 160.959 133.765C160.468 132.799 160.223 131.695 160.223 130.453C160.223 129.195 160.468 128.091 160.959 127.141C161.465 126.175 162.14 125.423 162.983 124.887C163.826 124.335 164.762 124.059 165.789 124.059C166.448 124.059 167.054 124.158 167.606 124.358C168.158 124.557 168.633 124.81 169.032 125.117C169.446 125.423 169.76 125.738 169.975 126.06C170.205 126.366 170.32 126.627 170.32 126.842L169.492 127.141V125.462C169.492 125.063 169.622 124.733 169.883 124.473C170.144 124.197 170.473 124.059 170.872 124.059ZM166.226 134.294C166.901 134.294 167.491 134.125 167.997 133.788C168.503 133.45 168.894 132.99 169.17 132.408C169.461 131.825 169.607 131.173 169.607 130.453C169.607 129.717 169.461 129.057 169.17 128.475C168.894 127.892 168.503 127.432 167.997 127.095C167.491 126.757 166.901 126.589 166.226 126.589C165.567 126.589 164.984 126.757 164.478 127.095C163.972 127.432 163.573 127.892 163.282 128.475C163.006 129.057 162.868 129.717 162.868 130.453C162.868 131.173 163.006 131.825 163.282 132.408C163.573 132.99 163.972 133.45 164.478 133.788C164.984 134.125 165.567 134.294 166.226 134.294ZM192.721 136.594C192.322 136.594 191.992 136.463 191.732 136.203C191.471 135.927 191.341 135.589 191.341 135.191V125.692C191.341 125.293 191.471 124.963 191.732 124.703C191.992 124.427 192.322 124.289 192.721 124.289C193.119 124.289 193.449 124.427 193.71 124.703C193.97 124.963 194.101 125.293 194.101 125.692V127.854L193.94 126.313C194.108 125.945 194.323 125.623 194.584 125.347C194.86 125.055 195.166 124.818 195.504 124.634C195.841 124.434 196.201 124.289 196.585 124.197C196.968 124.105 197.351 124.059 197.735 124.059C198.195 124.059 198.578 124.189 198.885 124.45C199.207 124.71 199.368 125.017 199.368 125.37C199.368 125.876 199.237 126.244 198.977 126.474C198.716 126.688 198.432 126.796 198.126 126.796C197.834 126.796 197.566 126.742 197.321 126.635C197.091 126.527 196.822 126.474 196.516 126.474C196.24 126.474 195.956 126.543 195.665 126.681C195.389 126.803 195.128 127.003 194.883 127.279C194.653 127.555 194.461 127.9 194.308 128.314C194.17 128.712 194.101 129.188 194.101 129.74V135.191C194.101 135.589 193.97 135.927 193.71 136.203C193.449 136.463 193.119 136.594 192.721 136.594ZM219.023 136.594C218.625 136.594 218.295 136.463 218.034 136.203C217.774 135.927 217.643 135.589 217.643 135.191V120.977C217.643 120.578 217.774 120.248 218.034 119.988C218.295 119.712 218.625 119.574 219.023 119.574C219.422 119.574 219.752 119.712 220.012 119.988C220.273 120.248 220.403 120.578 220.403 120.977V135.191C220.403 135.589 220.273 135.927 220.012 136.203C219.752 136.463 219.422 136.594 219.023 136.594ZM226.337 124.289C226.69 124.289 226.997 124.434 227.257 124.726C227.518 125.017 227.648 125.301 227.648 125.577C227.648 125.945 227.464 126.29 227.096 126.612L220.173 132.983L220.058 129.809L225.325 124.726C225.617 124.434 225.954 124.289 226.337 124.289ZM226.682 136.571C226.284 136.571 225.946 136.417 225.67 136.111L221.415 131.603L223.508 129.671L227.648 134.179C227.94 134.485 228.085 134.83 228.085 135.214C228.085 135.612 227.924 135.942 227.602 136.203C227.296 136.448 226.989 136.571 226.682 136.571ZM251.887 136.824C250.584 136.824 249.449 136.555 248.483 136.019C247.533 135.467 246.797 134.723 246.275 133.788C245.769 132.852 245.516 131.794 245.516 130.614C245.516 129.234 245.792 128.061 246.344 127.095C246.912 126.113 247.648 125.362 248.552 124.841C249.457 124.319 250.415 124.059 251.427 124.059C252.209 124.059 252.945 124.22 253.635 124.542C254.341 124.864 254.962 125.308 255.498 125.876C256.035 126.428 256.457 127.072 256.763 127.808C257.085 128.544 257.246 129.326 257.246 130.154C257.231 130.522 257.085 130.821 256.809 131.051C256.533 131.281 256.211 131.396 255.843 131.396H247.057L246.367 129.096H254.808L254.302 129.556V128.935C254.272 128.49 254.111 128.091 253.819 127.739C253.543 127.386 253.191 127.11 252.761 126.911C252.347 126.696 251.903 126.589 251.427 126.589C250.967 126.589 250.538 126.65 250.139 126.773C249.741 126.895 249.396 127.102 249.104 127.394C248.813 127.685 248.583 128.076 248.414 128.567C248.246 129.057 248.161 129.678 248.161 130.43C248.161 131.258 248.33 131.963 248.667 132.546C249.02 133.113 249.465 133.55 250.001 133.857C250.553 134.148 251.136 134.294 251.749 134.294C252.317 134.294 252.769 134.248 253.106 134.156C253.444 134.064 253.712 133.956 253.911 133.834C254.126 133.696 254.318 133.581 254.486 133.489C254.762 133.351 255.023 133.282 255.268 133.282C255.606 133.282 255.882 133.397 256.096 133.627C256.326 133.857 256.441 134.125 256.441 134.432C256.441 134.846 256.227 135.221 255.797 135.559C255.399 135.896 254.839 136.195 254.118 136.456C253.398 136.701 252.654 136.824 251.887 136.824ZM275.896 124.519H281.347C281.715 124.519 282.021 124.641 282.267 124.887C282.512 125.132 282.635 125.439 282.635 125.807C282.635 126.159 282.512 126.458 282.267 126.704C282.021 126.934 281.715 127.049 281.347 127.049H275.896C275.528 127.049 275.221 126.926 274.976 126.681C274.73 126.435 274.608 126.129 274.608 125.761C274.608 125.408 274.73 125.117 274.976 124.887C275.221 124.641 275.528 124.519 275.896 124.519ZM278.357 121.644C278.755 121.644 279.077 121.782 279.323 122.058C279.583 122.318 279.714 122.648 279.714 123.047V133.282C279.714 133.496 279.752 133.673 279.829 133.811C279.921 133.949 280.036 134.048 280.174 134.11C280.327 134.171 280.488 134.202 280.657 134.202C280.841 134.202 281.009 134.171 281.163 134.11C281.316 134.033 281.492 133.995 281.692 133.995C281.906 133.995 282.098 134.094 282.267 134.294C282.451 134.493 282.543 134.769 282.543 135.122C282.543 135.551 282.305 135.904 281.83 136.18C281.37 136.456 280.871 136.594 280.335 136.594C280.013 136.594 279.652 136.571 279.254 136.525C278.87 136.463 278.502 136.333 278.15 136.134C277.812 135.919 277.529 135.597 277.299 135.168C277.069 134.738 276.954 134.148 276.954 133.397V123.047C276.954 122.648 277.084 122.318 277.345 122.058C277.621 121.782 277.958 121.644 278.357 121.644ZM303.868 135.191C303.868 135.589 303.738 135.927 303.477 136.203C303.216 136.463 302.887 136.594 302.488 136.594C302.089 136.594 301.76 136.463 301.499 136.203C301.238 135.927 301.108 135.589 301.108 135.191V125.692C301.108 125.293 301.238 124.963 301.499 124.703C301.76 124.427 302.089 124.289 302.488 124.289C302.887 124.289 303.216 124.427 303.477 124.703C303.738 124.963 303.868 125.293 303.868 125.692V135.191ZM302.465 122.794C301.944 122.794 301.576 122.709 301.361 122.541C301.146 122.372 301.039 122.073 301.039 121.644V121.207C301.039 120.762 301.154 120.463 301.384 120.31C301.629 120.141 301.997 120.057 302.488 120.057C303.025 120.057 303.4 120.141 303.615 120.31C303.83 120.478 303.937 120.777 303.937 121.207V121.644C303.937 122.088 303.822 122.395 303.592 122.564C303.362 122.717 302.986 122.794 302.465 122.794ZM329.382 124.059C330.517 124.059 331.376 124.296 331.958 124.772C332.556 125.247 332.963 125.883 333.177 126.681C333.407 127.463 333.522 128.337 333.522 129.303V135.191C333.522 135.589 333.392 135.927 333.131 136.203C332.871 136.463 332.541 136.594 332.142 136.594C331.744 136.594 331.414 136.463 331.153 136.203C330.893 135.927 330.762 135.589 330.762 135.191V129.303C330.762 128.797 330.693 128.344 330.555 127.946C330.433 127.532 330.203 127.202 329.865 126.957C329.528 126.711 329.045 126.589 328.416 126.589C327.803 126.589 327.282 126.711 326.852 126.957C326.438 127.202 326.116 127.532 325.886 127.946C325.672 128.344 325.564 128.797 325.564 129.303V135.191C325.564 135.589 325.434 135.927 325.173 136.203C324.913 136.463 324.583 136.594 324.184 136.594C323.786 136.594 323.456 136.463 323.195 136.203C322.935 135.927 322.804 135.589 322.804 135.191V125.692C322.804 125.293 322.935 124.963 323.195 124.703C323.456 124.427 323.786 124.289 324.184 124.289C324.583 124.289 324.913 124.427 325.173 124.703C325.434 124.963 325.564 125.293 325.564 125.692V126.681L325.219 126.612C325.357 126.351 325.557 126.075 325.817 125.784C326.078 125.477 326.385 125.193 326.737 124.933C327.09 124.672 327.489 124.465 327.933 124.312C328.378 124.143 328.861 124.059 329.382 124.059ZM357.712 124.059C358.356 124.059 358.946 124.158 359.483 124.358C360.019 124.557 360.479 124.81 360.863 125.117C361.261 125.423 361.568 125.738 361.783 126.06C362.013 126.366 362.128 126.627 362.128 126.842L361.53 127.141V125.462C361.53 125.063 361.66 124.733 361.921 124.473C362.181 124.197 362.511 124.059 362.91 124.059C363.308 124.059 363.638 124.189 363.899 124.45C364.159 124.71 364.29 125.048 364.29 125.462V135.697C364.29 137.031 363.998 138.096 363.416 138.894C362.848 139.706 362.097 140.289 361.162 140.642C360.226 141.01 359.222 141.194 358.149 141.194C357.842 141.194 357.443 141.155 356.953 141.079C356.462 141.002 355.994 140.91 355.55 140.803C355.105 140.695 354.768 140.596 354.538 140.504C354.078 140.304 353.756 140.051 353.572 139.745C353.403 139.453 353.372 139.139 353.48 138.802C353.618 138.357 353.84 138.05 354.147 137.882C354.453 137.728 354.775 137.713 355.113 137.836C355.266 137.882 355.519 137.974 355.872 138.112C356.224 138.25 356.608 138.372 357.022 138.48C357.451 138.602 357.827 138.664 358.149 138.664C359.299 138.664 360.15 138.434 360.702 137.974C361.254 137.514 361.53 136.877 361.53 136.065V134.064L361.806 134.271C361.806 134.47 361.698 134.715 361.484 135.007C361.284 135.283 361.001 135.559 360.633 135.835C360.28 136.111 359.858 136.348 359.368 136.548C358.877 136.732 358.356 136.824 357.804 136.824C356.715 136.824 355.734 136.555 354.86 136.019C353.986 135.467 353.296 134.715 352.79 133.765C352.284 132.799 352.031 131.695 352.031 130.453C352.031 129.195 352.284 128.091 352.79 127.141C353.296 126.175 353.978 125.423 354.837 124.887C355.695 124.335 356.654 124.059 357.712 124.059ZM358.149 126.589C357.459 126.589 356.853 126.757 356.332 127.095C355.81 127.432 355.404 127.892 355.113 128.475C354.821 129.057 354.676 129.717 354.676 130.453C354.676 131.173 354.821 131.825 355.113 132.408C355.404 132.99 355.81 133.45 356.332 133.788C356.853 134.125 357.459 134.294 358.149 134.294C358.854 134.294 359.467 134.125 359.989 133.788C360.51 133.45 360.916 132.99 361.208 132.408C361.499 131.825 361.645 131.173 361.645 130.453C361.645 129.717 361.499 129.057 361.208 128.475C360.916 127.892 360.51 127.432 359.989 127.095C359.467 126.757 358.854 126.589 358.149 126.589Z" fill="#1A281F"/>
<path fill-rule="evenodd" clip-rule="evenodd" d="M449.669 93.0844C449.669 93.0844 453.691 89.1836 454.484 84.1856C455.276 79.1876 446.743 75.165 435.345 76.7497C423.947 78.3344 416.329 85.4046 416.755 92.6577C417.182 99.9108 427.422 105.579 441.928 102.836C456.434 100.094 449.669 93.0844 449.669 93.0844ZM451.118 86.2382C451.118 87.0657 450.868 87.8624 450.406 88.6083C451.396 87.6451 451.97 86.4963 451.97 85.2627C451.97 81.8628 447.604 79.1067 442.218 79.1067C442.077 79.1067 441.936 79.1086 441.796 79.1124C447.245 80.2027 451.118 82.9819 451.118 86.2382Z" fill="#1A281F"/>
<path d="M458.736 56.196C458.998 59.5483 462.82 70.1536 461.906 81.6123C460.992 93.071 453.251 92.8881 453.251 92.8881C453.251 92.8881 455.628 90.2673 456.725 83.6237C457.822 76.9801 457.335 66.6795 456.603 59.1216C455.872 51.5638 455.122 43.8231 453.921 40.2879C452.721 36.7528 448.192 32.6691 448.192 32.6691C448.192 32.6691 456.359 47.9416 449.594 50.8324C442.828 53.7231 428.932 40.8974 428.932 40.8974L434.6 36.8747L439.72 29.4997L451.118 29.7435L456.725 41.9946L466.294 28.8293L481.532 24.3799L482.812 31.1454L485.798 47.7848L473.304 56.196C473.304 56.196 459.155 55.0379 461.845 44.6154C464.535 34.1929 481.532 27.1227 481.532 27.1227C481.532 27.1227 472.633 28.8293 467.94 31.9377C463.247 35.0462 460.976 39.3127 459.529 44.1888C458.081 49.0648 458.474 52.8437 458.736 56.196Z" fill="#607C25"/>
<path fill-rule="evenodd" clip-rule="evenodd" d="M455.379 47.745C460.096 41.6572 456.908 28.8611 447.708 17.754C437.777 5.7644 413.206 0.914062 413.206 0.914062C413.206 0.914062 408.147 23.7444 418.752 36.8748C426.915 46.981 439.627 51.9291 447.996 51.2266L447.996 51.2257C448.562 51.1716 449.097 51.044 449.593 50.8318C456.359 47.9411 448.191 32.6686 448.191 32.6686C448.191 32.6686 452.72 36.7523 453.921 40.2874C454.494 41.9745 454.964 44.6193 455.379 47.745Z" fill="#607C25"/>
<path fill-rule="evenodd" clip-rule="evenodd" d="M511.702 47.906C531.145 33.5826 529.987 -0.000976562 529.987 -0.000976562C529.987 -0.000976562 525.721 9.99492 513.348 13.9567C507.672 15.7742 502.804 15.706 497.755 15.6353C491.799 15.5519 485.591 15.465 477.509 18.467C462.576 24.0135 454.47 41.6891 457.7 49.186C457.881 49.6063 458.151 50.0204 458.501 50.4252C458.572 48.5418 458.845 46.4844 459.528 44.1824C460.976 39.3064 463.246 35.0399 467.939 31.9314C472.632 28.8229 481.531 27.1163 481.531 27.1163C481.531 27.1163 464.534 34.1866 461.844 44.6091C459.154 55.0316 473.303 56.1897 473.303 56.1897L473.304 56.1887L473.304 56.1896L473.356 56.2275C484.863 57.8667 500.32 56.2914 511.702 47.906Z" fill="#607C25"/>
</svg>
