<svg width="719" height="219" viewBox="0 0 719 219" fill="none" xmlns="http://www.w3.org/2000/svg">
<path d="M243.964 68.2694L203.032 215.564H160.457L90.0137 0L127.941 0L183.567 161.202L185.255 156.108L225.589 0H263.683L304.018 156.108H305.213L339.273 0H386.031L328.816 215.564H286.241L245.309 68.2694H243.964Z" fill="url(#paint0_linear_397_7)"/>
<path d="M460.576 84.2538C441.454 84.2538 427.71 98.7442 426.216 118.762H494.188C493.291 98.296 479.996 84.2538 460.576 84.2538ZM494.785 166.565H534.821C530.041 197.937 501.358 219 461.771 219C412.473 219 382.894 187.48 382.894 136.24C382.894 85.1501 412.772 51.9864 460.127 51.9864C506.736 51.9864 536.165 83.5068 536.165 132.207V145.502H425.768V148.191C425.768 171.047 440.259 186.733 462.518 186.733C478.502 186.733 490.752 178.815 494.785 166.565Z" fill="url(#paint1_linear_397_7)"/>
<path d="M653.883 218.104C630.429 218.104 612.502 206.75 603.689 188.077H602.792V215.564H559.769V0H603.39V83.2081H604.286C613.1 64.236 630.877 52.8827 653.733 52.8827C694.068 52.8827 718.866 83.8056 718.866 135.493C718.866 187.031 694.217 218.104 653.883 218.104ZM638.795 87.839C617.731 87.839 603.24 106.811 603.24 135.493C603.24 164.474 617.582 182.998 638.795 182.998C660.605 182.998 674.199 164.773 674.199 135.493C674.199 106.363 660.456 87.839 638.795 87.839Z" fill="url(#paint2_linear_397_7)"/>
<path d="M154.915 215.564L138.482 163.279H62.7426L46.31 215.564H0L74.843 0H127.875L202.868 215.564H154.915ZM100.089 41.2306L72.4528 129.518H128.772L101.135 41.2306H100.089Z" fill="white"/>
<defs>
<linearGradient id="paint0_linear_397_7" x1="177.441" y1="204.74" x2="251.897" y2="106.809" gradientUnits="userSpaceOnUse">
<stop stop-color="#B0B0B0"/>
<stop offset="1" stop-color="white"/>
</linearGradient>
<linearGradient id="paint1_linear_397_7" x1="177.441" y1="204.74" x2="251.897" y2="106.809" gradientUnits="userSpaceOnUse">
<stop stop-color="#B0B0B0"/>
<stop offset="1" stop-color="white"/>
</linearGradient>
<linearGradient id="paint2_linear_397_7" x1="177.441" y1="204.74" x2="251.897" y2="106.809" gradientUnits="userSpaceOnUse">
<stop stop-color="#B0B0B0"/>
<stop offset="1" stop-color="white"/>
</linearGradient>
</defs>
</svg>
