<svg width="168" height="45" viewBox="0 0 168 45" fill="none" xmlns="http://www.w3.org/2000/svg">
<path d="M9.49852 12.8557C10.7465 12.8557 11.8866 12.9636 12.9189 13.1793C13.9512 13.3796 14.814 13.6107 15.5073 13.8726C16.216 14.1345 16.6706 14.3502 16.8708 14.5197L14.5829 18.6565C14.2901 18.4408 13.7432 18.1635 12.942 17.8245C12.1563 17.4856 11.278 17.3161 10.3074 17.3161C9.56785 17.3161 8.94386 17.4317 8.43542 17.6628C7.92699 17.8785 7.67277 18.2251 7.67277 18.7028C7.67277 19.1804 7.9501 19.5656 8.50476 19.8583C9.07482 20.1356 9.8914 20.3821 10.9545 20.5978C11.8789 20.7827 12.8188 21.0755 13.774 21.476C14.7293 21.8766 15.5227 22.4698 16.1544 23.2556C16.8015 24.0259 17.1251 25.0582 17.1251 26.3524C17.1251 27.6774 16.84 28.7713 16.27 29.6341C15.6999 30.4969 14.945 31.1672 14.0051 31.6448C13.0653 32.1224 12.0484 32.4537 10.9545 32.6385C9.86059 32.8388 8.79749 32.939 7.76521 32.939C6.31694 32.939 5.05355 32.808 3.97505 32.5461C2.91195 32.2842 2.04915 31.9837 1.38665 31.6448C0.724137 31.3058 0.261922 31.0362 0 30.8359L2.26485 26.2138C2.66544 26.5527 3.32024 26.9379 4.22927 27.3693C5.13829 27.7853 6.10124 27.9933 7.11811 27.9933C8.10417 27.9933 8.86682 27.8469 9.40608 27.5542C9.94533 27.2614 10.215 26.8763 10.215 26.3986C10.215 26.0135 10.084 25.7053 9.82207 25.4742C9.56015 25.2431 9.19037 25.0428 8.71275 24.8733C8.23513 24.7038 7.65736 24.5498 6.97945 24.4111C6.36316 24.2879 5.70835 24.0953 5.01503 23.8333C4.32171 23.5714 3.66691 23.2171 3.05062 22.7702C2.43433 22.308 1.9336 21.7303 1.54842 21.0369C1.16324 20.3436 0.970652 19.5039 0.970652 18.5179C0.970652 17.2545 1.37894 16.2068 2.19552 15.3748C3.0121 14.5428 4.06749 13.9188 5.36169 13.5028C6.6559 13.0714 8.03484 12.8557 9.49852 12.8557Z" fill="#E2FFA5"/>
<path d="M26.8402 41.9984H19.8839V13.4104H26.9096V16.1837C27.1253 15.7523 27.5336 15.2824 28.1344 14.7739C28.7507 14.2501 29.5288 13.8033 30.4686 13.4335C31.4239 13.0483 32.5024 12.8557 33.7041 12.8557C35.553 12.8557 37.1322 13.3102 38.4418 14.2193C39.7669 15.1283 40.7837 16.3455 41.4925 17.8708C42.2012 19.3807 42.5556 21.0601 42.5556 22.9089C42.5556 24.7578 42.1781 26.4449 41.4231 27.9702C40.6682 29.4801 39.6051 30.6895 38.2338 31.5986C36.878 32.4922 35.2757 32.939 33.4268 32.939C32.1018 32.939 30.9694 32.7079 30.0295 32.2457C29.1051 31.768 28.3733 31.2442 27.834 30.6741C27.3102 30.0887 26.9789 29.6341 26.8402 29.3106V41.9984ZM35.6917 22.9089C35.6917 22.0461 35.4991 21.2758 35.1139 20.5978C34.7287 19.9045 34.2049 19.3653 33.5424 18.9801C32.8953 18.5795 32.1634 18.3792 31.3468 18.3792C30.4994 18.3792 29.7368 18.5795 29.0589 18.9801C28.3964 19.3653 27.8725 19.9045 27.4873 20.5978C27.1022 21.2758 26.9096 22.0461 26.9096 22.9089C26.9096 23.7717 27.1022 24.5498 27.4873 25.2431C27.8725 25.921 28.3964 26.4526 29.0589 26.8377C29.7368 27.2229 30.4994 27.4155 31.3468 27.4155C32.1634 27.4155 32.8953 27.2229 33.5424 26.8377C34.2049 26.4526 34.7287 25.921 35.1139 25.2431C35.4991 24.5498 35.6917 23.7717 35.6917 22.9089Z" fill="#E2FFA5"/>
<path d="M51.6106 32.3843H44.585V13.4104H51.6106V16.3455H51.4951C51.6183 15.9911 51.9188 15.5443 52.3964 15.005C52.874 14.4504 53.5442 13.9573 54.407 13.5259C55.2698 13.0791 56.3252 12.8557 57.5732 12.8557C58.4514 12.8557 59.2603 12.9944 59.9998 13.2717C60.7394 13.5337 61.2786 13.7879 61.6176 14.0344L58.8905 19.7427C58.6748 19.4808 58.2896 19.2112 57.735 18.9339C57.1957 18.6411 56.5178 18.4948 55.7012 18.4948C54.7614 18.4948 53.9833 18.7336 53.3671 19.2112C52.7662 19.6888 52.3194 20.2666 52.0266 20.9445C51.7493 21.6224 51.6106 22.2618 51.6106 22.8627V32.3843Z" fill="#E2FFA5"/>
<path d="M71.7513 32.939C69.6713 32.939 67.8225 32.5153 66.2047 31.6679C64.6024 30.8051 63.339 29.6264 62.4146 28.1319C61.5055 26.622 61.051 24.8964 61.051 22.9551C61.051 21.0138 61.5055 19.2882 62.4146 17.7783C63.339 16.253 64.6024 15.0513 66.2047 14.173C67.8225 13.2948 69.6713 12.8557 71.7513 12.8557C73.8313 12.8557 75.6647 13.2948 77.2517 14.173C78.8386 15.0513 80.0789 16.253 80.9725 17.7783C81.8661 19.2882 82.3129 21.0138 82.3129 22.9551C82.3129 24.8964 81.8661 26.622 80.9725 28.1319C80.0789 29.6264 78.8386 30.8051 77.2517 31.6679C75.6647 32.5153 73.8313 32.939 71.7513 32.939ZM71.7513 27.1613C72.5525 27.1613 73.2458 26.9841 73.8313 26.6297C74.4167 26.2754 74.8712 25.7746 75.1948 25.1275C75.5183 24.4804 75.6801 23.7486 75.6801 22.932C75.6801 22.1 75.5183 21.3605 75.1948 20.7134C74.8712 20.0663 74.4167 19.5579 73.8313 19.1881C73.2458 18.8183 72.5525 18.6334 71.7513 18.6334C70.9501 18.6334 70.2491 18.8183 69.6482 19.1881C69.0627 19.5579 68.6005 20.0663 68.2616 20.7134C67.938 21.3605 67.7762 22.1 67.7762 22.932C67.7762 23.7486 67.938 24.4804 68.2616 25.1275C68.6005 25.7746 69.0627 26.2754 69.6482 26.6297C70.2491 26.9841 70.9501 27.1613 71.7513 27.1613Z" fill="#E2FFA5"/>
<path d="M91.7006 22.1925C91.7006 23.7024 91.9856 24.9118 92.5557 25.8209C93.1257 26.7145 94.081 27.1613 95.4214 27.1613C96.7926 27.1613 97.7556 26.7145 98.3102 25.8209C98.8803 24.9118 99.1653 23.7024 99.1653 22.1925V13.4104H106.099V22.932C106.099 24.9658 105.675 26.7376 104.827 28.2475C103.995 29.742 102.786 30.8975 101.199 31.7141C99.6121 32.5307 97.6862 32.939 95.4214 32.939C93.172 32.939 91.2538 32.5307 89.6668 31.7141C88.0799 30.8975 86.8704 29.742 86.0384 28.2475C85.2064 26.7376 84.7905 24.9658 84.7905 22.932V13.4104H91.7006V22.1925Z" fill="#E2FFA5"/>
<path d="M107.644 13.4104H110.88V5.62207H117.836V13.4104H122.089V19.1881H117.836V24.4804C117.836 25.2662 117.952 25.9056 118.183 26.3986C118.414 26.8763 118.838 27.1151 119.454 27.1151C119.87 27.1151 120.224 27.0226 120.517 26.8377C120.81 26.6529 120.987 26.5296 121.049 26.468L123.452 31.4599C123.344 31.5523 123.005 31.7218 122.435 31.9683C121.881 32.2148 121.172 32.4382 120.309 32.6385C119.446 32.8388 118.483 32.939 117.42 32.939C115.525 32.939 113.961 32.4074 112.729 31.3443C111.496 30.2658 110.88 28.6096 110.88 26.3755V19.1881H107.644V13.4104Z" fill="#E2FFA5"/>
<path d="M40.479 39.5455C40.8701 39.5455 41.1584 39.6408 41.3442 39.8314C41.5299 40.0171 41.6521 40.2591 41.7108 40.5572L41.5861 40.4913L41.6448 40.3739C41.7034 40.2615 41.7938 40.1418 41.916 40.0147C42.0382 39.8827 42.1849 39.7728 42.3559 39.6848C42.5319 39.5919 42.7274 39.5455 42.9425 39.5455C43.2944 39.5455 43.5608 39.6212 43.7416 39.7728C43.9274 39.9243 44.0545 40.1271 44.1229 40.3813C44.1913 40.6306 44.2255 40.9092 44.2255 41.2171V43.094C44.2255 43.2211 44.184 43.3286 44.1009 43.4166C44.0178 43.4997 43.9127 43.5412 43.7856 43.5412C43.6585 43.5412 43.5535 43.4997 43.4704 43.4166C43.3873 43.3286 43.3457 43.2211 43.3457 43.094V41.2171C43.3457 41.0558 43.3262 40.9116 43.2871 40.7845C43.248 40.6526 43.1771 40.5475 43.0745 40.4693C42.9718 40.3911 42.8252 40.352 42.6345 40.352C42.4488 40.352 42.29 40.3911 42.158 40.4693C42.026 40.5475 41.9258 40.6526 41.8574 40.7845C41.7938 40.9116 41.7621 41.0558 41.7621 41.2171V43.094C41.7621 43.2211 41.7205 43.3286 41.6374 43.4166C41.5544 43.4997 41.4493 43.5412 41.3222 43.5412C41.1951 43.5412 41.09 43.4997 41.0069 43.4166C40.9238 43.3286 40.8823 43.2211 40.8823 43.094V41.2171C40.8823 41.0558 40.8627 40.9116 40.8236 40.7845C40.7845 40.6526 40.7136 40.5475 40.611 40.4693C40.5084 40.3911 40.3617 40.352 40.1711 40.352C39.9854 40.352 39.8265 40.3911 39.6945 40.4693C39.5626 40.5475 39.4624 40.6526 39.3939 40.7845C39.3304 40.9116 39.2986 41.0558 39.2986 41.2171V43.094C39.2986 43.2211 39.2571 43.3286 39.174 43.4166C39.0909 43.4997 38.9858 43.5412 38.8587 43.5412C38.7316 43.5412 38.6266 43.4997 38.5435 43.4166C38.4604 43.3286 38.4188 43.2211 38.4188 43.094V40.066C38.4188 39.9389 38.4604 39.8338 38.5435 39.7508C38.6266 39.6628 38.7316 39.6188 38.8587 39.6188C38.9858 39.6188 39.0909 39.6628 39.174 39.7508C39.2571 39.8338 39.2986 39.9389 39.2986 40.066V40.3813L39.1887 40.3593C39.2326 40.2762 39.2937 40.1882 39.3719 40.0953C39.4502 39.9976 39.5455 39.9072 39.6579 39.8241C39.7703 39.741 39.8949 39.675 40.0318 39.6261C40.1687 39.5723 40.3177 39.5455 40.479 39.5455Z" fill="#9AC63E"/>
<path d="M53.5212 39.5455C53.6483 39.5455 53.7534 39.587 53.8364 39.6701C53.9195 39.7532 53.9611 39.8607 53.9611 39.9927V43.094C53.9611 43.2211 53.9195 43.3286 53.8364 43.4166C53.7534 43.4997 53.6483 43.5412 53.5212 43.5412C53.3941 43.5412 53.289 43.4997 53.2059 43.4166C53.1228 43.3286 53.0813 43.2211 53.0813 43.094V42.7348L53.2426 42.8007C53.2426 42.8643 53.2084 42.9425 53.1399 43.0354C53.0715 43.1233 52.9786 43.2113 52.8613 43.2993C52.744 43.3873 52.6047 43.463 52.4434 43.5266C52.287 43.5852 52.1159 43.6146 51.9302 43.6146C51.593 43.6146 51.2875 43.529 51.0138 43.3579C50.74 43.182 50.5225 42.9425 50.3612 42.6394C50.2048 42.3315 50.1266 41.9796 50.1266 41.5837C50.1266 41.1829 50.2048 40.831 50.3612 40.5279C50.5225 40.22 50.7376 39.9805 51.0064 39.8094C51.2752 39.6334 51.5734 39.5455 51.9009 39.5455C52.1111 39.5455 52.3041 39.5772 52.4801 39.6408C52.656 39.7043 52.8076 39.785 52.9347 39.8827C53.0666 39.9805 53.1668 40.0807 53.2353 40.1833C53.3086 40.2811 53.3452 40.3642 53.3452 40.4326L53.0813 40.5279V39.9927C53.0813 39.8656 53.1228 39.7605 53.2059 39.6774C53.289 39.5895 53.3941 39.5455 53.5212 39.5455ZM52.0402 42.8081C52.2553 42.8081 52.4434 42.7543 52.6047 42.6468C52.766 42.5392 52.8907 42.3926 52.9786 42.2069C53.0715 42.0211 53.1179 41.8134 53.1179 41.5837C53.1179 41.3491 53.0715 41.1389 52.9786 40.9532C52.8907 40.7674 52.766 40.6208 52.6047 40.5133C52.4434 40.4057 52.2553 40.352 52.0402 40.352C51.83 40.352 51.6443 40.4057 51.483 40.5133C51.3217 40.6208 51.1946 40.7674 51.1017 40.9532C51.0137 41.1389 50.9698 41.3491 50.9698 41.5837C50.9698 41.8134 51.0137 42.0211 51.1017 42.2069C51.1946 42.3926 51.3217 42.5392 51.483 42.6468C51.6443 42.7543 51.83 42.8081 52.0402 42.8081Z" fill="#9AC63E"/>
<path d="M60.4858 43.5412C60.3587 43.5412 60.2536 43.4997 60.1705 43.4166C60.0874 43.3286 60.0459 43.2211 60.0459 43.094V40.066C60.0459 39.9389 60.0874 39.8338 60.1705 39.7508C60.2536 39.6628 60.3587 39.6188 60.4858 39.6188C60.6129 39.6188 60.7179 39.6628 60.801 39.7508C60.8841 39.8338 60.9257 39.9389 60.9257 40.066V40.7552L60.8744 40.264C60.9281 40.1467 60.9965 40.044 61.0796 39.956C61.1676 39.8632 61.2654 39.7874 61.3729 39.7288C61.4804 39.6652 61.5953 39.6188 61.7175 39.5895C61.8397 39.5601 61.9619 39.5455 62.0841 39.5455C62.2307 39.5455 62.3529 39.587 62.4507 39.6701C62.5533 39.7532 62.6046 39.851 62.6046 39.9634C62.6046 40.1247 62.5631 40.242 62.48 40.3153C62.3969 40.3837 62.3065 40.4179 62.2087 40.4179C62.1158 40.4179 62.0303 40.4008 61.9521 40.3666C61.8788 40.3324 61.7933 40.3153 61.6955 40.3153C61.6075 40.3153 61.5171 40.3373 61.4242 40.3813C61.3362 40.4204 61.2532 40.4839 61.1749 40.5719C61.1016 40.6599 61.0405 40.7699 60.9917 40.9018C60.9477 41.0289 60.9257 41.1804 60.9257 41.3564V43.094C60.9257 43.2211 60.8841 43.3286 60.801 43.4166C60.7179 43.4997 60.6129 43.5412 60.4858 43.5412Z" fill="#9AC63E"/>
<path d="M68.8702 43.5412C68.7432 43.5412 68.6381 43.4997 68.555 43.4166C68.4719 43.3286 68.4303 43.2211 68.4303 43.094V38.563C68.4303 38.4359 68.4719 38.3309 68.555 38.2478C68.6381 38.1598 68.7432 38.1158 68.8702 38.1158C68.9973 38.1158 69.1024 38.1598 69.1855 38.2478C69.2686 38.3309 69.3101 38.4359 69.3101 38.563V43.094C69.3101 43.2211 69.2686 43.3286 69.1855 43.4166C69.1024 43.4997 68.9973 43.5412 68.8702 43.5412ZM71.2017 39.6188C71.3141 39.6188 71.4119 39.6652 71.495 39.7581C71.5781 39.851 71.6196 39.9414 71.6196 40.0294C71.6196 40.1467 71.561 40.2566 71.4437 40.3593L69.2368 42.3902L69.2002 41.3784L70.8791 39.7581C70.972 39.6652 71.0795 39.6188 71.2017 39.6188ZM71.3117 43.5339C71.1846 43.5339 71.0771 43.485 70.9891 43.3873L69.6327 41.9503L70.2999 41.3344L71.6196 42.7714C71.7125 42.8692 71.7589 42.9791 71.7589 43.1013C71.7589 43.2284 71.7076 43.3335 71.605 43.4166C71.5072 43.4948 71.4095 43.5339 71.3117 43.5339Z" fill="#9AC63E"/>
<path d="M79.3463 43.6146C78.9308 43.6146 78.5691 43.529 78.2612 43.3579C77.9582 43.182 77.7236 42.9449 77.5574 42.6468C77.3961 42.3486 77.3154 42.0114 77.3154 41.635C77.3154 41.1951 77.4034 40.8212 77.5794 40.5133C77.7602 40.2004 77.9948 39.9609 78.2832 39.7947C78.5716 39.6286 78.8771 39.5455 79.1997 39.5455C79.449 39.5455 79.6836 39.5968 79.9035 39.6994C80.1284 39.8021 80.3263 39.9438 80.4974 40.1247C80.6684 40.3006 80.8029 40.5059 80.9006 40.7405C81.0033 40.9751 81.0546 41.2244 81.0546 41.4884C81.0497 41.6057 81.0033 41.701 80.9153 41.7743C80.8273 41.8476 80.7247 41.8843 80.6074 41.8843H77.8067L77.5867 41.1511H80.2774L80.1161 41.2977V41.0998C80.1064 40.958 80.055 40.831 79.9622 40.7185C79.8742 40.6061 79.7618 40.5181 79.6249 40.4546C79.4929 40.3862 79.3512 40.352 79.1997 40.352C79.053 40.352 78.9162 40.3715 78.7891 40.4106C78.662 40.4497 78.552 40.5157 78.4592 40.6086C78.3663 40.7014 78.293 40.8261 78.2392 40.9825C78.1855 41.1389 78.1586 41.3368 78.1586 41.5763C78.1586 41.8403 78.2123 42.0651 78.3199 42.2509C78.4323 42.4317 78.574 42.571 78.7451 42.6688C78.9211 42.7616 79.1068 42.8081 79.3023 42.8081C79.4832 42.8081 79.6273 42.7934 79.7349 42.7641C79.8424 42.7347 79.928 42.7005 79.9915 42.6614C80.0599 42.6174 80.121 42.5808 80.1748 42.5515C80.2628 42.5075 80.3459 42.4855 80.4241 42.4855C80.5316 42.4855 80.6196 42.5221 80.688 42.5954C80.7613 42.6688 80.798 42.7543 80.798 42.8521C80.798 42.984 80.7295 43.1038 80.5927 43.2113C80.4656 43.3188 80.2872 43.4142 80.0575 43.4972C79.8278 43.5755 79.5907 43.6146 79.3463 43.6146Z" fill="#9AC63E"/>
<path d="M86.9994 39.6921H88.7371C88.8544 39.6921 88.9521 39.7312 89.0303 39.8094C89.1085 39.8876 89.1476 39.9854 89.1476 40.1027C89.1476 40.2151 89.1085 40.3104 89.0303 40.3886C88.9521 40.4619 88.8544 40.4986 88.7371 40.4986H86.9994C86.8821 40.4986 86.7844 40.4595 86.7062 40.3813C86.628 40.3031 86.5889 40.2053 86.5889 40.088C86.5889 39.9756 86.628 39.8827 86.7062 39.8094C86.7844 39.7312 86.8821 39.6921 86.9994 39.6921ZM87.7839 38.7756C87.911 38.7756 88.0137 38.8196 88.0919 38.9076C88.1749 38.9907 88.2165 39.0958 88.2165 39.2229V42.4855C88.2165 42.5539 88.2287 42.6101 88.2532 42.6541C88.2825 42.6981 88.3191 42.7299 88.3631 42.7494C88.412 42.769 88.4633 42.7787 88.5171 42.7787C88.5758 42.7787 88.6295 42.769 88.6784 42.7494C88.7273 42.725 88.7835 42.7128 88.847 42.7128C88.9155 42.7128 88.9765 42.7445 89.0303 42.8081C89.089 42.8716 89.1183 42.9596 89.1183 43.072C89.1183 43.2089 89.0425 43.3213 88.891 43.4093C88.7444 43.4972 88.5855 43.5412 88.4145 43.5412C88.3118 43.5412 88.1969 43.5339 88.0699 43.5192C87.9477 43.4997 87.8304 43.4581 87.7179 43.3946C87.6104 43.3262 87.52 43.2235 87.4467 43.0867C87.3734 42.9498 87.3367 42.7616 87.3367 42.5221V39.2229C87.3367 39.0958 87.3782 38.9907 87.4613 38.9076C87.5493 38.8196 87.6568 38.7756 87.7839 38.7756Z" fill="#9AC63E"/>
<path d="M95.9161 43.094C95.9161 43.2211 95.8745 43.3286 95.7915 43.4166C95.7084 43.4997 95.6033 43.5412 95.4762 43.5412C95.3491 43.5412 95.244 43.4997 95.1609 43.4166C95.0778 43.3286 95.0363 43.2211 95.0363 43.094V40.066C95.0363 39.9389 95.0778 39.8338 95.1609 39.7508C95.244 39.6628 95.3491 39.6188 95.4762 39.6188C95.6033 39.6188 95.7084 39.6628 95.7915 39.7508C95.8745 39.8338 95.9161 39.9389 95.9161 40.066V43.094ZM95.4689 39.1422C95.3027 39.1422 95.1854 39.1153 95.1169 39.0616C95.0485 39.0078 95.0143 38.9125 95.0143 38.7756V38.6363C95.0143 38.4946 95.051 38.3993 95.1243 38.3504C95.2025 38.2966 95.3198 38.2698 95.4762 38.2698C95.6473 38.2698 95.767 38.2966 95.8354 38.3504C95.9039 38.4042 95.9381 38.4995 95.9381 38.6363V38.7756C95.9381 38.9174 95.9014 39.0151 95.8281 39.0689C95.7548 39.1178 95.635 39.1422 95.4689 39.1422Z" fill="#9AC63E"/>
<path d="M104.049 39.5455C104.411 39.5455 104.685 39.6212 104.87 39.7728C105.061 39.9243 105.191 40.1271 105.259 40.3813C105.332 40.6306 105.369 40.9092 105.369 41.2171V43.094C105.369 43.2211 105.327 43.3286 105.244 43.4166C105.161 43.4997 105.056 43.5412 104.929 43.5412C104.802 43.5412 104.697 43.4997 104.614 43.4166C104.531 43.3286 104.489 43.2211 104.489 43.094V41.2171C104.489 41.0558 104.467 40.9116 104.423 40.7845C104.384 40.6526 104.311 40.5475 104.203 40.4693C104.096 40.3911 103.942 40.352 103.741 40.352C103.546 40.352 103.38 40.3911 103.243 40.4693C103.111 40.5475 103.008 40.6526 102.935 40.7845C102.866 40.9116 102.832 41.0558 102.832 41.2171V43.094C102.832 43.2211 102.791 43.3286 102.708 43.4166C102.625 43.4997 102.519 43.5412 102.392 43.5412C102.265 43.5412 102.16 43.4997 102.077 43.4166C101.994 43.3286 101.952 43.2211 101.952 43.094V40.066C101.952 39.9389 101.994 39.8338 102.077 39.7508C102.16 39.6628 102.265 39.6188 102.392 39.6188C102.519 39.6188 102.625 39.6628 102.708 39.7508C102.791 39.8338 102.832 39.9389 102.832 40.066V40.3813L102.722 40.3593C102.766 40.2762 102.83 40.1882 102.913 40.0953C102.996 39.9976 103.094 39.9072 103.206 39.8241C103.319 39.741 103.446 39.675 103.587 39.6261C103.729 39.5723 103.883 39.5455 104.049 39.5455Z" fill="#9AC63E"/>
<path d="M113.08 39.5455C113.285 39.5455 113.473 39.5772 113.644 39.6408C113.815 39.7043 113.962 39.785 114.084 39.8827C114.211 39.9805 114.309 40.0807 114.378 40.1833C114.451 40.2811 114.487 40.3642 114.487 40.4326L114.297 40.5279V39.9927C114.297 39.8656 114.338 39.7605 114.421 39.6774C114.505 39.5895 114.61 39.5455 114.737 39.5455C114.864 39.5455 114.969 39.587 115.052 39.6701C115.135 39.7532 115.177 39.8607 115.177 39.9927V43.2553C115.177 43.6805 115.084 44.0202 114.898 44.2744C114.717 44.5335 114.478 44.7192 114.18 44.8316C113.881 44.9489 113.561 45.0076 113.219 45.0076C113.121 45.0076 112.994 44.9954 112.838 44.9709C112.681 44.9465 112.532 44.9171 112.391 44.8829C112.249 44.8487 112.141 44.8169 112.068 44.7876C111.921 44.7241 111.819 44.6434 111.76 44.5457C111.706 44.4528 111.697 44.3526 111.731 44.2451C111.775 44.1033 111.846 44.0056 111.943 43.9518C112.041 43.9029 112.144 43.898 112.251 43.9371C112.3 43.9518 112.381 43.9811 112.493 44.0251C112.606 44.0691 112.728 44.1082 112.86 44.1424C112.997 44.1815 113.116 44.2011 113.219 44.2011C113.586 44.2011 113.857 44.1278 114.033 43.9811C114.209 43.8345 114.297 43.6317 114.297 43.3726V42.7348L114.385 42.8007C114.385 42.8643 114.351 42.9425 114.282 43.0354C114.219 43.1233 114.128 43.2113 114.011 43.2993C113.899 43.3873 113.764 43.463 113.608 43.5266C113.451 43.5852 113.285 43.6146 113.109 43.6146C112.762 43.6146 112.449 43.529 112.171 43.3579C111.892 43.182 111.672 42.9425 111.511 42.6394C111.35 42.3315 111.269 41.9796 111.269 41.5837C111.269 41.1829 111.35 40.831 111.511 40.5279C111.672 40.22 111.89 39.9805 112.163 39.8094C112.437 39.6334 112.743 39.5455 113.08 39.5455ZM113.219 40.352C112.999 40.352 112.806 40.4057 112.64 40.5133C112.474 40.6208 112.344 40.7674 112.251 40.9532C112.158 41.1389 112.112 41.3491 112.112 41.5837C112.112 41.8134 112.158 42.0211 112.251 42.2069C112.344 42.3926 112.474 42.5392 112.64 42.6468C112.806 42.7543 112.999 42.8081 113.219 42.8081C113.444 42.8081 113.639 42.7543 113.806 42.6468C113.972 42.5392 114.101 42.3926 114.194 42.2069C114.287 42.0211 114.334 41.8134 114.334 41.5837C114.334 41.3491 114.287 41.1389 114.194 40.9532C114.101 40.7674 113.972 40.6208 113.806 40.5133C113.639 40.4057 113.444 40.352 113.219 40.352Z" fill="#9AC63E"/>
<path fill-rule="evenodd" clip-rule="evenodd" d="M142.393 29.6748C142.393 29.6748 143.675 28.4313 143.928 26.8381C144.181 25.2449 141.461 23.9626 137.827 24.4678C134.194 24.9729 131.765 27.2267 131.901 29.5388C132.037 31.8508 135.302 33.6578 139.926 32.7834C144.55 31.9091 142.393 29.6748 142.393 29.6748ZM142.855 27.4924C142.855 27.7563 142.775 28.0104 142.628 28.2483C142.943 27.9412 143.127 27.5748 143.127 27.1814C143.127 26.0976 141.735 25.2191 140.018 25.2191C139.973 25.2191 139.928 25.2197 139.883 25.2209C141.62 25.5684 142.855 26.4544 142.855 27.4924Z" fill="#492C14"/>
<path d="M145.284 17.9135C145.368 18.9821 146.586 22.3627 146.294 26.0154C146.003 29.6681 143.535 29.6098 143.535 29.6098C143.535 29.6098 144.293 28.7743 144.643 26.6566C144.993 24.5388 144.837 21.2553 144.604 18.8461C144.371 16.4369 144.132 13.9694 143.749 12.8425C143.366 11.7156 141.923 10.4138 141.923 10.4138C141.923 10.4138 144.526 15.2822 142.37 16.2037C140.213 17.1252 135.783 13.0368 135.783 13.0368L137.59 11.7544L139.222 9.40353L142.855 9.48125L144.643 13.3865L147.693 9.18981L152.551 7.77148L152.959 9.92811L153.911 15.2323L149.928 17.9135C149.928 17.9135 145.418 17.5443 146.275 14.2219C147.132 10.8996 152.551 8.64579 152.551 8.64579C152.551 8.64579 149.714 9.18981 148.218 10.1807C146.722 11.1716 145.998 12.5316 145.537 14.0859C145.075 15.6403 145.201 16.8449 145.284 17.9135Z" fill="#607C25"/>
<path fill-rule="evenodd" clip-rule="evenodd" d="M144.213 15.2202C145.717 13.2799 144.701 9.20021 141.768 5.65907C138.603 1.83715 130.77 0.291016 130.77 0.291016C130.77 0.291016 129.158 7.5686 132.538 11.7542C135.157 14.9969 139.246 16.5736 141.912 16.3245C142.073 16.3047 142.226 16.2657 142.369 16.2047C144.525 15.2832 141.922 10.4148 141.922 10.4148C141.922 10.4148 143.365 11.7166 143.748 12.8435C143.931 13.3811 144.081 14.224 144.213 15.2202Z" fill="#607C25"/>
<path fill-rule="evenodd" clip-rule="evenodd" d="M162.167 15.2716C168.365 10.7057 167.996 0.000305176 167.996 0.000305176C167.996 0.000305176 166.636 3.18669 162.692 4.44958C160.882 5.02894 159.331 5.00721 157.721 4.98468C155.823 4.95809 153.844 4.93039 151.267 5.88732C146.507 7.65537 143.923 13.2898 144.953 15.6796C145.011 15.8136 145.097 15.9457 145.208 16.0748C145.231 15.4747 145.318 14.8193 145.536 14.086C145.997 12.5316 146.721 11.1716 148.217 10.1807C149.713 9.18983 152.55 8.64581 152.55 8.64581C152.55 8.64581 147.131 10.8996 146.274 14.222C145.42 17.5325 149.895 17.9108 149.927 17.9135L149.926 17.9135L149.941 17.9238C153.609 18.447 158.538 17.9453 162.167 15.2716Z" fill="#607C25"/>
</svg>
